<svg width="24" height="24" xmlns="http://www.w3.org/2000/svg">

 <g>
  <title>background</title>
  <rect fill="none" id="canvas_background" height="402" width="582" y="-1" x="-1"/>
 </g>
 <g>
  <title fill="#ffffff">Layer 1</title>
  <path id="svg_1" fill="#ffffff" d="m1.76221,22.75c0,0.414061 0.33593,0.75 0.75,0.75l18.951171,0c0.414059,0 0.75,-0.335939 0.75,-0.75l0,-2.75c0,-0.414061 -0.335941,-0.75 -0.75,-0.75s-0.75,0.335939 -0.75,0.75l0,2l-17.451171,0l0,-2c0,-0.414061 -0.33594,-0.75 -0.75,-0.75s-0.75,0.335939 -0.75,0.75l0,2.75z"/>
  <path id="svg_2" fill="#ffffff" d="m1.76221,7.5c0,0.41406 0.33593,0.75 0.75,0.75s0.75,-0.33594 0.75,-0.75l0,-5.5l12.975579,0l0,4c0,0.41406 0.335941,0.75 0.75,0.75l3.75,0l0,0.75c0,0.41406 0.335941,0.75 0.75,0.75s0.75,-0.33594 0.75,-0.75l0,-2.5c0,-0.19727 -0.078119,-0.38672 -0.216789,-0.52734l-3.70948,-3.75c-0.141109,-0.14258 -0.333,-0.22266 -0.533199,-0.22266l-15.26611,0c-0.41407,0 -0.75,0.33594 -0.75,0.75l0,6.25zm18.9176,-2.25l-2.94202,0l0,-2.97455l2.94202,2.97455z"/>
  <path id="svg_3" fill="#ffffff" d="m6.33496,11.25c0.41406,0 0.75,-0.33594 0.75,-0.75s-0.33594,-0.75 -0.75,-0.75l-3.63672,0c-0.41406,0 -0.75,0.33594 -0.75,0.75l0,6.5c0,0.414061 0.33594,0.75 0.75,0.75l3.63672,0c0.41406,0 0.75,-0.335939 0.75,-0.75s-0.33594,-0.75 -0.75,-0.75l-2.88672,0l0,-5l2.88672,0z"/>
  <path id="svg_4" fill="#ffffff" d="m11.18311,16.995119c0.41406,0 0.75,-0.335939 0.75,-0.75l0,-1.631839l1.63134,0c0.41407,0 0.75,-0.33594 0.75,-0.75s-0.33593,-0.75 -0.75,-0.75l-1.63134,0l0,-1.63086c0,-0.41406 -0.33594,-0.75 -0.75,-0.75s-0.75,0.33594 -0.75,0.75l0,1.63086l-1.631351,0c-0.41406,0 -0.75,0.335939 -0.75,0.75s0.33594,0.75 0.75,0.75l1.631351,0l0,1.631839c0,0.414061 0.33593,0.75 0.75,0.75z"/>
  <path id="svg_5" fill="#ffffff" d="m18.92041,16.995119c0.414061,0 0.75,-0.335939 0.75,-0.75l0,-1.631839l1.63135,0c0.414061,0 0.75,-0.33594 0.75,-0.75s-0.335939,-0.75 -0.75,-0.75l-1.63135,0l0,-1.63086c0,-0.41406 -0.335939,-0.75 -0.75,-0.75s-0.75,0.33594 -0.75,0.75l0,1.63086l-1.63135,0c-0.414061,0 -0.750001,0.335939 -0.750001,0.75s0.33594,0.75 0.750001,0.75l1.63135,0l0,1.631839c0,0.414061 0.335939,0.75 0.75,0.75z"/>
 </g>
</svg>