<svg width="32" height="32" xmlns="http://www.w3.org/2000/svg">
 <title/>
 <desc/>

 <g>
  <title>background</title>
  <rect fill="none" id="canvas_background" height="402" width="582" y="-1" x="-1"/>
 </g>
 <g>
  <title fill="#ffffff">Layer 1</title>
  <path fill="#ffffff" id="document-file-c" d="m21,26l0,2.002581c0,1.106499 -0.894279,1.997419 -1.997419,1.997419l-15.005161,0c-1.10649,0 -1.99742,-0.89871 -1.99742,-2.00733l0,-22.98534c0,-1.10899 0.89925,-2.00733 2.00853,-2.00733l9.99147,0l0,6.0019c0,1.11139 0.89808,1.9981 2.00592,1.9981l4.99408,0l0,2l-9.99315,0c-1.660641,0 -3.00685,1.34226 -3.00685,2.99879l0,7.002419c0,1.656191 1.33599,2.998791 3.00685,2.998791l9.99315,0l0,0zm-6,-23l0,5.99707c0,0.5539 0.45098,1.00293 0.99078,1.00293l5.00922,0l-6,-7l0,0zm-4.00544,11c-1.101561,0 -1.99456,0.90018 -1.99456,1.99202l0,7.015961c0,1.100161 0.90234,1.99202 1.99456,1.99202l17.01088,0c1.101561,0 1.99456,-0.900181 1.99456,-1.99202l0,-7.015961c0,-1.10016 -0.90234,-1.99202 -1.99456,-1.99202l-17.01088,0l0,0zm11.00543,7c-0.00316,1.11657 -0.899561,2 -2.004871,2l-0.990238,0c-1.110981,0 -2.004881,-0.898081 -2.004881,-2.00592l0,-2.988159c0,-1.11937 0.897619,-2.00592 2.004881,-2.00592l0.990238,0c1.109001,0 2.001692,0.89488 2.004871,2l-0.99999,0c0,-0.55237 -0.442659,-1 -0.99896,-1l-1.002079,0c-0.55171,0 -0.99896,0.44372 -0.99896,0.999809l0,3.000381c0,0.552179 0.442659,0.999809 0.99896,0.999809l1.002079,0c0.55171,0 0.99896,-0.44372 0.99896,-0.999809l0.99999,-0.000191l0,0l0,0z"/>
 </g>
</svg>