<svg width="24" height="24" xmlns="http://www.w3.org/2000/svg">

 <g>
  <title>background</title>
  <rect fill="none" id="canvas_background" height="402" width="582" y="-1" x="-1"/>
 </g>
 <g>
  <title fill="#ffffff">Layer 1</title>
  <rect y="3" x="11" width="2.5" id="XMLID_1489_" height="2.5" fill="#ffffff"/>
  <rect id="svg_2" y="5.25" x="11" width="2.5" opacity="0.1" height="0.25" fill="#ffffff"/>
  <rect id="svg_3" y="3" x="11" width="2.5" opacity="0.2" height="0.25" fill="#ffffff"/>
  <rect y="6" x="11" width="2.5" id="XMLID_1314_" height="2.5" fill="#ffffff"/>
  <rect id="svg_4" y="8.25" x="11" width="2.5" opacity="0.1" height="0.25" fill="#ffffff"/>
  <rect id="svg_5" y="6" x="11" width="2.5" opacity="0.2" height="0.25" fill="#ffffff"/>
  <rect y="9" x="11" width="2.5" id="XMLID_1315_" height="2.5" fill="#ffffff"/>
  <rect id="svg_6" y="11.25" x="11" width="2.5" opacity="0.1" height="0.25" fill="#ffffff"/>
  <rect id="svg_7" y="9" x="11" width="2.5" opacity="0.2" height="0.25" fill="#ffffff"/>
  <rect y="6" x="8" width="2.5" id="XMLID_1307_" height="2.5" fill="#ffffff"/>
  <rect id="svg_8" y="8.25" x="8" width="2.5" opacity="0.1" height="0.25" fill="#ffffff"/>
  <rect id="svg_9" y="6" x="8" width="2.5" opacity="0.2" height="0.25" fill="#ffffff"/>
  <rect y="9" x="8" width="2.5" id="XMLID_1306_" height="2.5" fill="#ffffff"/>
  <rect id="svg_10" y="11.25" x="8" width="2.5" opacity="0.1" height="0.25" fill="#ffffff"/>
  <rect id="svg_11" y="9" x="8" width="2.5" opacity="0.2" height="0.25" fill="#ffffff"/>
  <rect y="6" x="5" width="2.5" id="XMLID_1317_" height="2.5" fill="#ffffff"/>
  <rect id="svg_12" y="8.25" x="5" width="2.5" opacity="0.1" height="0.25" fill="#ffffff"/>
  <rect id="svg_13" y="6" x="5" width="2.5" opacity="0.2" height="0.25" fill="#ffffff"/>
  <rect y="9" x="5" width="2.5" id="XMLID_1316_" height="2.5" fill="#ffffff"/>
  <rect id="svg_14" y="11.25" x="5" width="2.5" opacity="0.1" height="0.25" fill="#ffffff"/>
  <rect id="svg_15" y="9" x="5" width="2.5" opacity="0.2" height="0.25" fill="#ffffff"/>
  <rect y="9" x="2" width="2.5" id="XMLID_1318_" height="2.5" fill="#ffffff"/>
  <rect id="svg_16" y="11.25" x="2" width="2.5" opacity="0.1" height="0.25" fill="#ffffff"/>
  <rect id="svg_17" y="9" x="2" width="2.5" opacity="0.2" height="0.25" fill="#ffffff"/>
  <rect y="9" x="14" width="2.5" id="XMLID_1305_" height="2.5" fill="#ffffff"/>
  <rect id="svg_18" y="11.25" x="14" width="2.5" opacity="0.1" height="0.25" fill="#ffffff"/>
  <rect id="svg_19" y="9" x="14" width="2.5" opacity="0.2" height="0.25" fill="#ffffff"/>
  <path id="svg_20" fill="#ffffff" d="m23.59473,11.22313c-0.06934,-0.04492 -1.498051,-0.94726 -2.84864,-0.73242c-0.327141,-1.369141 -1.583,-2.221681 -1.644529,-2.262691l-0.347651,-0.23145c0,0 -0.217569,0.22555 -0.290041,0.30078c-0.02648,0.02748 -0.0947,0.106 -0.17602,0.24788c-0.22485,0.392241 -0.549889,1.26881 -0.369879,2.89032c0.01758,0.15234 -0.02832,0.302731 -0.12598,0.41113c-0.087891,0.09863 -0.209961,0.15332 -0.34375,0.15332l-17.44824,0l0,0.5c0,7.671881 5.59473,8.5 8,8.5c6.19336,0 10.498051,-3.761721 12.376949,-7.07715c2.47559,-0.394529 3.333012,-1.949719 3.377932,-2.02393l0.245119,-0.41504l-0.40527,-0.26075z"/>
  <path id="svg_21" opacity="0.2" fill="#ffffff" d="m17.44824,12l-17.44824,0l0,0.25l17.44824,0c0.133789,0 0.255859,-0.05469 0.34375,-0.15332c0.09766,-0.108399 0.14356,-0.25879 0.12598,-0.41113c-0.005741,-0.051579 -0.00482,-0.09278 -0.009521,-0.14289c-0.009338,0.1131 -0.042358,0.22174 -0.116459,0.30402c-0.087891,0.09863 -0.209961,0.15332 -0.34375,0.15332z"/>
  <path id="svg_22" opacity="0.2" fill="#ffffff" d="m23.59473,11.22314c-0.06934,-0.04492 -1.498051,-0.94726 -2.84864,-0.73242c-0.327141,-1.36914 -1.583,-2.22168 -1.644529,-2.26269l-0.347651,-0.23145c0,0 -0.217581,0.22555 -0.290041,0.30078c-0.019869,0.020619 -0.063068,0.07027 -0.117579,0.154019c-0.188181,0.28914 -0.511181,0.98477 -0.47422,2.29618c0.011469,-1.5025 0.507999,-2.113099 0.591799,-2.200199l0.290041,-0.30078l0.347651,0.23145c0.061529,0.04101 1.317389,0.89355 1.644529,2.26269c1.35059,-0.21484 3.25391,0.74317 3.25391,0.74317l-0.40527,-0.26075z"/>
  <path id="svg_23" opacity="0.1" fill="#ffffff" d="m23.754881,11.64893c-0.04492,0.07421 -0.902342,1.629391 -3.377932,2.02392c-1.878899,3.31543 -6.183589,7.07715 -12.376949,7.07715c-2.40527,0 -8,-0.828119 -8,-8.5l0,0.25c0,7.671881 5.59473,8.5 8,8.5c6.19336,0 10.498051,-3.761721 12.376949,-7.07715c2.47559,-0.394529 3.333012,-1.94971 3.377932,-2.02392l0.245119,-0.41504l-0.106991,-0.06885l-0.138128,0.23389z"/>
  <path id="svg_24" fill="#ffffff" d="m13.5,6l-2.5,0l0,2.5l2.5,0l0,-2.5zm0,3l-2.5,0l0,2.5l2.5,0l0,-2.5zm3,0l-2.5,0l0,2.5l2.5,0l0,-2.5zm-3,-6l-2.5,0l0,2.5l2.5,0l0,-2.5zm-3,3l-2.5,0l0,2.5l2.5,0l0,-2.5zm-6,3l-2.5,0l0,2.5l2.5,0l0,-2.5zm19.09473,2.22314c-0.06934,-0.04492 -1.498051,-0.94726 -2.84864,-0.73242c-0.327141,-1.36914 -1.583,-2.22168 -1.644529,-2.26269l-0.347651,-0.23145c0,0 -0.21759,0.22553 -0.290041,0.30078c-0.026489,0.02747 -0.094669,0.10596 -0.176029,0.247869c-0.22485,0.39221 -0.54986,1.2688 -0.369869,2.89032c0.01758,0.15234 -0.02832,0.302731 -0.12598,0.41113c-0.087891,0.09863 -0.209961,0.15332 -0.34375,0.15332l-17.44824,0l0,0.5c0,7.671881 5.59473,8.5 8,8.5c6.19336,0 10.498051,-3.761721 12.376949,-7.07715c2.47559,-0.394529 3.333012,-1.94971 3.377932,-2.02392l0.245119,-0.41504l-0.40527,-0.26075zm-13.09473,-2.22314l-2.5,0l0,2.5l2.5,0l0,-2.5zm-3,-3l-2.5,0l0,2.5l2.5,0l0,-2.5zm0,3l-2.5,0l0,2.5l2.5,0l0,-2.5z"/>
 </g>
</svg>