<svg width="24" height="24" xmlns="http://www.w3.org/2000/svg">
 <title/>

 <g>
  <title>background</title>
  <rect fill="none" id="canvas_background" height="402" width="582" y="-1" x="-1"/>
 </g>
 <g>
  <title fill="#ffffff">Layer 1</title>
  <path fill="#ffffff" id="svg_1" d="m12,12a4,4 0 1 1 8,0a4,4 0 0 1 -8,0zm-8,8a4,4 0 0 1 4,-4l4,0l0,4a4,4 0 1 1 -8,0zm8,-20l0,8l4,0a4,4 0 1 0 0,-8l-4,0zm-8,4a4,4 0 0 0 4,4l4,0l0,-8l-4,0a4,4 0 0 0 -4,4zm0,8a4,4 0 0 0 4,4l4,0l0,-8l-4,0a4,4 0 0 0 -4,4z"/>
 </g>
</svg>