<svg width="24" height="24" xmlns="http://www.w3.org/2000/svg">
 <title/>

 <g>
  <title>background</title>
  <rect fill="none" id="canvas_background" height="402" width="582" y="-1" x="-1"/>
 </g>
 <g>
  <title fill="#ffffff">Layer 1</title>
  <path fill="#ffffff" id="svg_1" d="m3.89,15.673l2.365,-15.212a0.542,0.542 0 0 1 1.015,-0.172l2.543,4.771l-5.923,10.613zm16.794999,3.691l-2.251999,-13.999001a0.543,0.543 0 0 0 -0.918001,-0.295l-14.199999,14.294l7.857,4.427999a1.62,1.62 0 0 0 1.587,0l7.926,-4.427999zm-6.384999,-12.216001l-1.820001,-3.482a0.542,0.542 0 0 0 -0.959999,0l-7.99,14.317999l10.77,-10.835999z"/>
 </g>
</svg>