<svg width="56.693" height="56.693" xmlns="http://www.w3.org/2000/svg">

 <g>
  <title>background</title>
  <rect fill="none" id="canvas_background" height="402" width="582" y="-1" x="-1"/>
 </g>
 <g>
  <title fill="#ffffff">Layer 1</title>
  <polygon fill="#ffffff" id="svg_2" points="16.356,9.799 18.382,9.799 18.382,12.018 20.598,12.018 20.598,5.391 18.382,5.391    18.382,7.581 16.356,7.581 16.356,5.391 14.141,5.391 14.141,12.018 16.356,12.018  "/>
  <polygon fill="#ffffff" id="svg_3" points="23.51,12.018 25.725,12.018 25.725,7.59 27.674,7.59 27.674,5.391 21.561,5.391    21.561,7.59 23.51,7.59  "/>
  <polygon fill="#ffffff" id="svg_4" points="30.812,8.735 32.338,11.09 32.375,11.09 33.898,8.735 33.898,12.018 36.105,12.018    36.105,5.391 33.795,5.391 32.375,7.723 30.955,5.391 28.646,5.391 28.646,12.018 30.812,12.018  "/>
  <polygon fill="#ffffff" id="svg_5" points="42.537,9.829 39.422,9.829 39.422,5.391 37.207,5.391 37.207,12.018 42.537,12.018     "/>
  <path fill="#ffffff" id="svg_6" d="m10.949,14.926l3.167999,35.532001l14.221,3.946999l14.232,-3.945l3.174,-35.533999l-34.794999,0zm27.921998,11.62l-10.524998,0l-6.152,0l0.397999,4.463001l5.754002,0l10.128998,0l-1.195,13.382998l-8.933998,2.475002l-0.006001,0.001999l-8.927999,-2.477001l-0.623001,-7l4.374001,0l0.323999,3.631001l4.854,1.312l0.006001,-0.001999l0,0l4.859001,-1.312l0.506001,-5.652l-5.365002,0l0,0l-9.739,0l-1.177,-13.178999l10.915001,0l10.913998,0l-0.389,4.355999z"/>
 </g>
</svg>