<?xml version="1.0" encoding="UTF-8" standalone="no"?>
<svg
   xmlns:dc="http://purl.org/dc/elements/1.1/"
   xmlns:cc="http://creativecommons.org/ns#"
   xmlns:rdf="http://www.w3.org/1999/02/22-rdf-syntax-ns#"
   xmlns:svg="http://www.w3.org/2000/svg"
   xmlns="http://www.w3.org/2000/svg"
   xmlns:sodipodi="http://sodipodi.sourceforge.net/DTD/sodipodi-0.dtd"
   xmlns:inkscape="http://www.inkscape.org/namespaces/inkscape"
   width="512"
   height="512"
   version="1.1"
   id="svg14"
   sodipodi:docname="jsWhite.svg"
   inkscape:version="0.92.5 (2060ec1f9f, 2020-04-08)">
  <metadata
     id="metadata20">
    <rdf:RDF>
      <cc:Work
         rdf:about="">
        <dc:format>image/svg+xml</dc:format>
        <dc:type
           rdf:resource="http://purl.org/dc/dcmitype/StillImage" />
      </cc:Work>
    </rdf:RDF>
  </metadata>
  <defs
     id="defs18" />
  <sodipodi:namedview
     pagecolor="#ffffff"
     bordercolor="#666666"
     borderopacity="1"
     objecttolerance="10"
     gridtolerance="10"
     guidetolerance="10"
     inkscape:pageopacity="0"
     inkscape:pageshadow="2"
     inkscape:window-width="775"
     inkscape:window-height="480"
     id="namedview16"
     showgrid="false"
     inkscape:zoom="0.4609375"
     inkscape:cx="256"
     inkscape:cy="256"
     inkscape:window-x="0"
     inkscape:window-y="27"
     inkscape:window-maximized="0"
     inkscape:current-layer="g12" />
  <g
     id="g5">
    <title
       id="title2">background</title>
    <rect
       fill="none"
       id="canvas_background"
       height="402"
       width="582"
       y="-1"
       x="-1" />
  </g>
  <g
     id="g12">
    <title
       id="title7">Layer 1</title>
    <rect
       id="svg_2"
       fill="#ffffff"
       y="26.001"
       x="26.002"
       width="459.996"
       height="459.998" />
    <path
       id="svg_3"
       fill="#000000"
       d="m276.330994,384.759003c0,44.766998 -26.286011,65.200012 -64.585999,65.200012c-34.600998,0 -54.623001,-17.865021 -64.891998,-39.529022l35.218002,-21.255005c6.777008,12.013 12.938004,22.177002 27.826004,22.177002c14.168991,0 23.207001,-5.543976 23.207001,-27.207977l0,-146.934006l43.22699,0l0,147.548996l0,0z"
       style="fill:#171717;fill-opacity:1" />
    <path
       id="svg_4"
       fill="#000000"
       d="m378.597992,449.959015c-40.147003,0 -66.123993,-19.098999 -78.753998,-44.151001l35.218994,-20.332001c9.240997,15.095001 21.356018,26.286011 42.611023,26.286011c17.865997,0 29.363983,-8.932007 29.363983,-21.355011c0,-14.787018 -11.703979,-20.020996 -31.519989,-28.75l-10.781006,-4.619995c-31.21402,-13.246002 -51.852997,-29.983002 -51.852997,-65.200012c0,-32.446991 24.744995,-57.089981 63.247986,-57.089981c27.518005,0 47.231995,9.548996 61.402008,34.602982l-33.678986,21.562012c-7.391998,-13.246002 -15.401001,-18.480988 -27.825012,-18.480988c-12.630005,0 -20.639008,8.009979 -20.639008,18.480988c0,12.937988 8.009003,18.175995 26.593994,26.285004l10.779999,4.621002c36.759003,15.709991 57.397003,31.832001 57.397003,67.973999c0.002014,38.809967 -30.596985,60.166992 -71.563995,60.166992l0,0z"
       style="fill:#171717;fill-opacity:1" />
  </g>
</svg>
