<svg width="512" height="512" xmlns="http://www.w3.org/2000/svg" clip-rule="evenodd">

 <g>
  <title>background</title>
  <rect fill="none" id="canvas_background" height="402" width="582" y="-1" x="-1"/>
 </g>
 <g>
  <title>Layer 1</title>
  <path fill="#ffffff" id="svg_1" fill-rule="nonzero" d="m473.304993,-1.353c20.880005,0 37.88501,16.533 37.88501,36.926002l0,438.251003c0,20.393005 -17.005005,36.95401 -37.88501,36.95401l-436.459011,0c-20.839001,0 -37.773002,-16.561005 -37.773002,-36.95401l0,-438.251003c0,-20.393002 16.934001,-36.926002 37.773002,-36.926002l436.459011,0zm-37.82901,436.389011l0,-134.033997c0,-65.822006 -14.212006,-116.427002 -91.119995,-116.427002c-36.954987,0 -61.738983,20.263 -71.867004,39.475998l-1.039978,0l0,-33.410995l-72.811005,0l0,244.395996l75.865997,0l0,-120.877991c0,-31.882996 6.031006,-62.77301 45.554016,-62.77301c38.980988,0 39.467987,36.460999 39.467987,64.802002l0,118.848999l75.949982,0zm-284.488998,-244.395996l-76.034004,0l0,244.395996l76.034004,0l0,-244.395996zm-37.997002,-121.489006c-24.395004,0 -44.066002,19.735001 -44.066002,44.047005c0,24.317993 19.670998,44.052002 44.066002,44.052002c24.299004,0 44.025993,-19.734009 44.025993,-44.052002c0,-24.312004 -19.72699,-44.047005 -44.025993,-44.047005z"/>
 </g>
</svg>