<svg width="1024" height="1024" xmlns="http://www.w3.org/2000/svg">

 <g>
  <title>background</title>
  <rect fill="none" id="canvas_background" height="402" width="582" y="-1" x="-1"/>
 </g>
 <g>
  <title fill="#ffffff">Layer 1</title>
  <path fill="#ffffff" id="svg_3" fill-rule="evenodd" d="m511.846985,757.278992c0,10.585999 0,20.187988 0,30.83197c80.903992,0 161.375,0 241.785034,0c0,37.582031 0,74.129028 -0.01001,110.672058c0,0.327942 -0.164001,0.651978 -0.221008,0.983948c-5.341003,30.986023 -22.588989,54.121033 -47.640991,72.006042c-30.986023,22.118958 -66.561035,32.811951 -103.044006,41.269958c-85.164001,19.752075 -168.317993,12.870972 -248.585022,-21.23999c-19.079987,-8.106995 -36.901001,-20.794983 -52.854004,-34.27301c-22.846008,-19.307007 -33.869995,-45.563965 -33.899994,-75.83197c-0.072998,-78.046997 -0.804993,-156.10199 0.225006,-234.132996c0.924988,-70.19104 55.388977,-122.804993 125.530975,-123.01001c77.975006,-0.22699 155.96701,-1.085999 233.917999,0.22998c78.809021,1.334045 145.767029,-58.784973 156.637024,-133.642975c1.250977,-8.610992 1.377014,-17.432007 1.424988,-26.161987c0.163025,-30.611023 0.064026,-61.223999 0.064026,-91.837006c0,-3.605011 0,-7.213013 0,-11.838013c12.516968,0 23.854004,0 35.192993,0c18.14801,0.002014 36.299988,0.141998 54.447998,-0.02298c43.184998,-0.39502 75.380005,18.445984 97.421997,55.310974c16.096008,26.917023 24.122986,56.681 30.942017,86.920013c10.477966,46.455994 16.828003,93.304993 13.368958,141.044006c-4.066956,56.150024 -20.296997,108.848022 -47.127991,158.11499c-20.559998,37.752014 -53.252991,54.877014 -96.166992,54.734009c-115.953003,-0.380981 -231.906982,-0.128967 -347.859009,-0.127014c-4.313965,0 -8.627991,0 -13.549988,0zm137.113037,93.130981c-25.734009,-0.252014 -46.008972,19.757996 -46.221008,45.611023c-0.213989,25.792969 19.812988,46.886963 44.911987,47.306946c25.027039,0.41803 46.009033,-20.427979 46.278992,-45.985962c0.27301,-26 -19.544006,-46.68396 -44.969971,-46.932007z" clip-rule="evenodd"/>
  <path fill="#ffffff" id="svg_4" fill-rule="evenodd" d="m510.621002,261.304993c0,-10.548996 0,-20.083008 0,-30.811996c-81.056,0 -161.535004,0 -242.220001,0c-0.473999,-3.074005 -1.037994,-5.012009 -1.029999,-6.947006c0.140991,-34.311996 -0.53299,-68.656998 0.748993,-102.928001c2.041992,-54.623001 23.929993,-84.223 76.559998,-98.906998c31.826996,-8.878001 64.891998,-14.673001 97.789001,-18.063001c64.77301,-6.675 129.604004,-4.182 193.802979,7.426c37.246033,6.733999 68.971008,24.008999 92.947021,53.935013c16.723999,20.872986 25.52002,44.755997 25.515991,71.703003c-0.016968,77.713989 0.374023,155.429993 -0.11499,233.141998c-0.448975,71.217987 -53.786011,123.691986 -125.062012,123.813995c-78.651001,0.135986 -157.303986,-0.036011 -235.955994,0.057007c-76.783966,0.087982 -139.956985,52.139008 -154.398987,127.491974c-1.882996,9.830017 -2.223999,20.059021 -2.313995,30.111023c-0.285004,31.284973 -0.105011,62.573975 -0.105011,93.861023c0,3.617004 0,7.22998 0,12.089966c-7.473999,0 -13.769989,0.051025 -20.063004,-0.007996c-24.863998,-0.22699 -49.775986,0.426025 -74.575989,-0.945007c-39.027008,-2.159973 -68.304001,-21.813965 -89.938004,-53.754028c-18.086002,-26.702942 -25.991001,-57.16394 -33.359001,-88.003967c-19.057,-79.745972 -15.472,-158.713989 6.736,-237.217987c20.667999,-73.063019 76.843002,-115.872009 152.936996,-115.997986c106.549011,-0.177002 213.097015,-0.046997 319.645996,-0.046997c3.95401,-0.000031 7.908997,-0.000031 12.45401,-0.000031zm-137.182007,-185.900993c-25.30899,0.176003 -45.207001,20.862999 -45.057007,46.848c0.149017,25.682007 20.729004,46.290009 45.985016,46.042999c25.145996,-0.244995 45.417999,-21.307999 45.200989,-46.961998c-0.217987,-25.653999 -20.756989,-46.102997 -46.128998,-45.929001z" clip-rule="evenodd"/>
 </g>
</svg>