<svg width="600" height="600" xmlns="http://www.w3.org/2000/svg">

 <g>
  <title>background</title>
  <rect fill="none" id="canvas_background" height="402" width="582" y="-1" x="-1"/>
 </g>
 <g>
  <title fill="#ffffff">Layer 1</title>
  <circle fill="#ffffff" id="svg_1" r="50.2" cy="299.6" cx="299.5" class="st0"/>
  <path fill="#ffffff" id="svg_3" d="m299.5,414.600006c-70.5,0 -132.100006,-8.299988 -178.199997,-24.100006c-29.900002,-10.199982 -55.300003,-23.799988 -73.400002,-39.299988c-19.200001,-16.399994 -29.400002,-34.299988 -29.400002,-51.600006c0,-33.199982 36.400002,-65.699997 97.5,-86.899994c50,-17.400009 115.199997,-27.100006 183.399994,-27.100006c67,0 131.300018,9.400009 181,26.600006c29.100006,10 53.600006,23 71.000031,37.399994c18.899963,15.800018 28.899963,33.100006 28.899963,50c0,34.5 -40.700012,69.399994 -106.299988,91.100006c-46.399994,15.399994 -108.399994,23.899994 -174.5,23.899994zm0,-205c-64.699997,0 -128.699997,9.400009 -175.5,25.699997c-56.199997,19.600006 -81.400002,46.400009 -81.400002,64.300003c0,18.600006 27.099998,47.899994 86.500008,68.200012c43.599991,14.899994 102.599991,22.799988 170.399994,22.799988c63.599976,0 122.899994,-8 167,-22.699982c61.700012,-20.5 89.899963,-49.800018 89.899963,-68.300018c0,-9.5 -7.199951,-20.700012 -20.299988,-31.600006c-15.099976,-12.600006 -37.099976,-24.100006 -63.399994,-33.199997c-47.299988,-16.199997 -108.799988,-25.199997 -173.199982,-25.199997z" class="st0"/>
  <path fill="#ffffff" id="svg_5" d="m185.600006,549.799988c-10.199997,0 -19.199997,-2.200012 -26.800003,-6.599976c-28.699997,-16.600037 -38.699989,-64.400024 -26.599991,-127.900024c9.899994,-52.100006 34.099991,-113.300018 68.199982,-172.399994c33.5,-58 73.700012,-109 113.399994,-143.500008c23.200012,-20.199997 46.700012,-35 67.900024,-42.799995c23.100006,-8.5 43.099976,-8.5 57.700012,-0.100002c29.899994,17.200001 39.799988,70.000004 25.799988,137.600018c-9.899994,48 -33.5,105.899994 -66.5,163.199982c-35.200012,61 -73.200012,110.200012 -109.900024,142.300018c-23.799988,20.800018 -48.299973,35.999969 -70.699982,43.899994c-11.700012,4.200012 -22.700012,6.299988 -32.5,6.299988zm25.099991,-300.899994l10.400009,6c-32.300003,56 -56.200012,116.100006 -65.400009,164.899994c-11.100006,58.5 -0.399994,93.700012 15,102.599976c3.799988,2.200012 8.800003,3.400024 14.899994,3.400024c19.899994,0 51.200012,-12.599976 87.400009,-44.200012c34.700012,-30.299988 71,-77.5 104.899994,-136.199982c31.800018,-55.100006 54.399994,-110.5 63.800018,-156c13.099976,-63.700005 1.799988,-102.700005 -14.300018,-112.000008c-8.199982,-4.699997 -21.5,-4.099998 -37.5,1.800003c-18.5,6.800003 -39.399994,20.099998 -60.399994,38.400002c-37.700012,32.800003 -76.199997,81.600006 -108.400009,137.399994l-10.399994,-6.099991z" class="st0"/>
  <path fill="#ffffff" id="svg_7" d="m413.399994,550.099976c-27.200012,0 -61.700012,-16.400024 -97.699982,-47.399994c-40.200012,-34.600006 -81.100006,-86.100006 -115.300018,-145.200012l0,0c-33.599991,-58 -57.599991,-118.300003 -67.699997,-169.999985c-5.899994,-30.200012 -7,-57.900009 -3.199997,-80.200005c4.199997,-24.300003 14.100006,-41.599998 28.800003,-50.099998c29.800003,-17.300003 80.5,0.5 132.099991,46.400002c36.600006,32.499992 75,81.900002 108.100006,139.100014c35.299988,60.999985 59,118.499985 68.399994,166.300003c6.100006,31 7.100006,59.799988 2.800018,83.199982c-4.600006,24.899994 -15,42.600006 -30,51.300018c-7.5,4.400024 -16.400024,6.599976 -26.300018,6.599976zm-192.199997,-204.599976c32.400009,56 72.599991,106.700012 110.199997,139c45.100006,38.799988 80.899994,47.200012 96.399994,38.200012c16.100006,-9.299988 27.900024,-47.400024 15.700012,-109c-9,-45.200012 -31.700012,-100.200012 -65.700012,-158.900009c-31.899994,-55.099991 -68.599976,-102.399994 -103.299988,-133.199989c-48.600006,-43.200012 -88,-52.900017 -104.100006,-43.600014c-8.199997,4.699997 -14.300003,16.599998 -17.199997,33.400002c-3.300003,19.400002 -2.300003,44.200005 3.099991,71.499992c9.600006,49.100006 32.600006,106.800018 64.900009,162.600006l0,0z" class="st0"/>
 </g>
</svg>