<?xml version="1.0" encoding="UTF-8" standalone="no"?>
<svg
   xmlns:dc="http://purl.org/dc/elements/1.1/"
   xmlns:cc="http://creativecommons.org/ns#"
   xmlns:rdf="http://www.w3.org/1999/02/22-rdf-syntax-ns#"
   xmlns:svg="http://www.w3.org/2000/svg"
   xmlns="http://www.w3.org/2000/svg"
   xmlns:sodipodi="http://sodipodi.sourceforge.net/DTD/sodipodi-0.dtd"
   xmlns:inkscape="http://www.inkscape.org/namespaces/inkscape"
   height="512px"
   style="enable-background:new 0 0 512 512;"
   version="1.1"
   viewBox="0 0 512 512"
   width="512px"
   xml:space="preserve"
   id="svg10"
   sodipodi:docname="xdBlack.svg"
   inkscape:version="0.92.5 (2060ec1f9f, 2020-04-08)"><metadata
     id="metadata16"><rdf:RDF><cc:Work
         rdf:about=""><dc:format>image/svg+xml</dc:format><dc:type
           rdf:resource="http://purl.org/dc/dcmitype/StillImage" /></cc:Work></rdf:RDF></metadata><defs
     id="defs14" /><sodipodi:namedview
     pagecolor="#ffffff"
     bordercolor="#666666"
     borderopacity="1"
     objecttolerance="10"
     gridtolerance="10"
     guidetolerance="10"
     inkscape:pageopacity="0"
     inkscape:pageshadow="2"
     inkscape:window-width="775"
     inkscape:window-height="480"
     id="namedview12"
     showgrid="false"
     inkscape:zoom="0.4609375"
     inkscape:cx="256"
     inkscape:cy="256"
     inkscape:window-x="0"
     inkscape:window-y="27"
     inkscape:window-maximized="0"
     inkscape:current-layer="svg10" /><g
     id="_x33__x2C__XD_x2C__Adobe"
     style="fill:#ffffff"><g
       id="g6"
       style="fill:#ffffff"><path
         d="M323.036,288.219c0,57.204,36.282,62.385,48.04,62.385c11.76,0,16.924-2.192,16.924-2.192V229.224    c0,0-3.369-2.792-13.338-2.792C364.699,226.432,323.036,231.019,323.036,288.219z"
         id="path2"
         style="fill:#ffffff" /><path
         d="M0,0v512h512V0H0z M221.757,384l-48.368-100.103L125.577,384H81.034l66.07-130.529L83.311,126h45.077l47.601,98.241    L222.958,126h43.757l-64.844,125.938L269.97,384H221.757z M431,371.063c0,0-20.528,15.061-64.066,15.061    c-59.131,0-86.902-41.445-86.902-96.237c0-70.875,52.011-98.887,95.039-98.887c5.041,0,12.93,0,12.93,0v-65h43V371.063z"
         id="path4"
         style="fill:#ffffff" /></g></g><g
     id="Layer_1" /></svg>