<svg width="172" height="25" viewBox="0 0 172 25" fill="none" xmlns="http://www.w3.org/2000/svg">
<path d="M2 23.5455L8.5026 10.566C13.1551 1.27953 26.4166 1.30166 31.0381 10.6036L31.719 11.9742C36.1363 20.8651 48.8718 20.7128 53.0751 11.7187L53.57 10.6599C57.6934 1.8369 70.2924 1.98827 74.2026 10.9078V10.9078C78.1258 19.8567 90.7801 19.9707 94.8639 11.0939L95.6164 9.45797C99.7446 0.484572 112.292 -0.0603125 117.183 8.52144L119.58 12.7288C124.545 21.4401 137.34 20.6884 141.25 11.4558V11.4558C145.228 2.06207 158.329 1.49687 163.101 10.513L170 23.5455" stroke="#FFBB3D" stroke-width="4"/>
</svg>
