<svg width="171" height="21" viewBox="0 0 171 21" fill="none" xmlns="http://www.w3.org/2000/svg">
<path d="M2 20L7.21382 10.0736C12.0481 0.869933 25.2762 1.01901 29.9018 10.3293L30.719 11.9742C35.1363 20.8651 47.8718 20.7128 52.0751 11.7187L52.57 10.6599C56.6934 1.8369 69.2924 1.98827 73.2026 10.9078V10.9078C77.1258 19.8567 89.7801 19.9707 93.8639 11.0939L94.6164 9.45796C98.7446 0.484569 111.292 -0.0603158 116.183 8.52143L118.037 11.7761C123.224 20.8776 136.592 20.0922 140.678 10.4461V10.4461C144.675 1.00774 157.577 0.0390721 162.662 8.93852C164.682 12.474 166.7 16.0991 168.5 19.5" stroke="white" stroke-width="4"/>
</svg>
